# xmcd
#
# Track frame offsets: 
#        150
#        16697
#        34777
#        44859
#        58043
#        75935
#        90315
#        102535
#        114649
#        134913
#        148454
#        160737
#        174315
#
# Disc length: 2513 seconds
#
# Revision: 0
# Processed by: cddbd v1.5.2PL0 Copyright (c) Steve Scherf et al.
# Submitted via: ExactAudioCopy v0.95b4
#
DISCID=b009cf0d
DTITLE=Norton Money - Norton Money
DYEAR=2007
DGENRE=Bluegrass
TTITLE0=Amy
TTITLE1=Robbed me blind
TTITLE2=Lethargic hoedown
TTITLE3=Impossibility
TTITLE4=Pocket
TTITLE5=Bye bye baby
TTITLE6=Woman that cried
TTITLE7=Continental divide
TTITLE8=What you do
TTITLE9=Howdy hank
TTITLE10=Desert life
TTITLE11=Long black veil
TTITLE12=Outro
EXTD=
EXTT0=
EXTT1=
EXTT2=
EXTT3=
EXTT4=
EXTT5=
EXTT6=
EXTT7=
EXTT8=
EXTT9=
EXTT10=
EXTT11=
EXTT12=
PLAYORDER=
